<svg xmlns="http://www.w3.org/2000/svg" xml:space="preserve" width="24" height="24" viewBox="0 0 511.998 511.998"><path d="M505.209 410.348c-1.869-13.628-17.338-22.825-47.293-28.119-24.974-4.413-59.462-6.006-99.743-4.609-4.77.166-8.503 4.167-8.337 8.937s4.182 8.503 8.937 8.337c39.089-1.357 72.333.149 96.135 4.356 26.342 4.655 32.88 11.284 33.176 13.448.468 3.407-9.559 17.097-60.049 34.718-43.668 15.24-102.811 28.45-166.535 37.195-64.623 8.874-125.748 12.053-172.115 8.947a8.637 8.637 0 0 0-9.2 8.045c-.318 4.762 3.284 8.882 8.045 9.2 11.939.8 24.817 1.195 38.451 1.195 40.614 0 87.945-3.504 137.169-10.263 64.827-8.898 125.158-22.393 169.879-38 50.608-17.662 73.989-35.125 71.48-53.387z"/><path d="M417.917 156.781a8.643 8.643 0 0 0-10.02-1.423c-.264.139-26.893 13.985-63.935 18.855-20.944 2.753-40.712 2.169-59.224-1.701 26.49-8.905 45.632-33.954 45.632-63.406a66.686 66.686 0 0 0-8.73-33.055c3.525-10.794 8.391-32.346-1.096-50.237C313.506 12.54 300.379 4.147 281.53.866c-21.07-3.665-40.867 4.944-61.821 14.061-25.048 10.899-50.95 22.17-81.109 12.71a8.644 8.644 0 0 0-8.511 1.963 8.656 8.656 0 0 0-2.458 8.389s.071.285.217.819c6.303 23.131 22.726 41.51 45.062 50.422 8.23 3.284 16.759 5.052 25.264 5.359a67.056 67.056 0 0 0 .437 30.845c-55.248-34.484-104.919-10.618-131.051 8.21a8.642 8.642 0 0 0 5.053 15.653c18.602 0 64.493 2.75 88.796 28.224 10.839 11.363 15.912 26.132 15.075 43.901a8.64 8.64 0 0 0 8.226 9.038c4.758.224 8.814-3.458 9.038-8.226 1.067-22.672-5.606-41.73-19.834-56.645-19.392-20.326-48.973-28.491-72.636-31.665 28.687-12.797 65.377-15.144 104.35 18.079 38.448 32.775 87.064 46.381 140.583 39.346 14.614-1.921 27.687-5.11 38.454-8.417-19.324 17.116-54.776 36.135-113.851 29.35a8.635 8.635 0 0 0-6.833 14.937c.018.018.032.042.052.059.18.164 16.741 15.369 32.697 43.604-4.117-.895-8.246-1.723-12.378-2.42a8.64 8.64 0 0 0-9.959 7.084 8.642 8.642 0 0 0 7.084 9.959c8.528 1.439 17.055 3.366 25.422 5.686a232.789 232.789 0 0 1 9.663 26.192c-7.951 5.253-19.379 7.203-26.278 7.728-11.129-12.219-24.215-22.418-39.395-28.11-11.273-4.227-22.367-3.148-32.085 3.123-11.685 7.539-21.617 22.836-29.69 45.632-10.68-1.182-19.184-5.188-23.725-7.774 1.384-14.522 4.345-30.294 9.487-47.165 10.256-3.122 40.549-10.894 80.838-8.304a8.624 8.624 0 0 0 9.178-8.071 8.64 8.64 0 0 0-8.069-9.178c-32.675-2.098-59.12 2.12-75.096 5.843.307-.786.595-1.565.91-2.355 2.933-7.331 5.321-14.505 7.098-21.324a8.643 8.643 0 0 0-6.183-10.542 8.643 8.643 0 0 0-10.542 6.183c-1.595 6.121-3.755 12.601-6.419 19.263-23.824 59.55-21.49 108.26-15.336 138.637.255 1.258.521 2.489.791 3.706-41.01 9.347-75.788 20.135-100.98 31.346-31.798 14.154-46.281 28.134-44.276 42.732 2.048 14.969 20.625 24.654 56.793 29.608.398.054.793.081 1.183.081 4.252 0 7.959-3.14 8.551-7.47a8.64 8.64 0 0 0-7.39-9.733c-33.427-4.578-41.662-12.256-42.014-14.831-.338-2.459 5.145-11.669 34.183-24.593 24.321-10.825 58.237-21.301 98.44-30.433 6.544 20.611 14.141 32.177 14.551 32.794a8.644 8.644 0 0 0 9.421 3.557 8.642 8.642 0 0 0 6.394-7.779c.573-8.66 1.853-21.408 3.98-35.714 19.299-3.679 39.318-6.956 59.613-9.745 21.459-2.943 42.755-5.274 63.413-6.955 7.044 17.005 10.519 29.745 10.565 29.915a8.643 8.643 0 0 0 16.905-1.046c9.775-69.982-8.482-123.743-25.518-156.518-8.684-16.707-17.867-29.751-25.268-38.98 1.326.025 2.661.058 3.961.058 44.297-.001 74.058-14.25 92.063-27.379 23.464-17.109 32.715-36.05 33.098-36.849a8.64 8.64 0 0 0-1.797-9.96zM179.32 73.174c-12.616-5.034-22.789-13.974-29.246-25.398 29.058 3.657 54.06-7.222 76.534-17.002 19.313-8.404 35.99-15.662 51.962-12.882 13.289 2.313 22.265 7.685 26.68 15.967 5.644 10.589 3.508 24.253 1.092 33.057-33.186-15.927-59.43-7.962-76.114 2.162-15.425 9.358-33.98 10.852-50.908 4.096zm34.557 35.93a49.2 49.2 0 0 1 2.708-16.174 74.362 74.362 0 0 0 22.61-9.076c20.597-12.499 43.337-11.522 67.588 2.903a8.62 8.62 0 0 0 1.302.621 49.494 49.494 0 0 1 5.003 21.727c-.001 27.353-22.254 49.605-49.606 49.605-27.352-.001-49.605-22.253-49.605-49.606zm-35.494 276.61c-2.234 10.956-3.942 21.518-5.229 30.768-4.708-14.774-8.922-34.987-8.739-59.684 5.239 2.285 11.849 4.516 19.476 5.705-1.977 7.18-3.815 14.914-5.508 23.211zm69.763 1.656a1193.609 1193.609 0 0 0-54.218 8.714c6.362-33.91 17.252-70.466 34.253-81.436 5.151-3.324 10.44-3.79 16.646-1.462 27.59 10.346 47.664 40.432 59.644 63.85.651 1.271 1.28 2.535 1.898 3.794a1186.528 1186.528 0 0 0-58.223 6.54zm78.651-3.793c-5.986-13.476-13.928-28.697-23.962-42.805 5.699-1.142 12.182-3.018 18.254-6.091 3.26 14.705 5.425 31.039 5.708 48.896z"/><path d="M257.307 92.688c-3.183-1.936-7.33-1.598-10.156.825-5.976 5.124-2.161 15.188 5.648 15.188 3.914 0 7.398-2.746 8.362-6.523.925-3.615-.662-7.549-3.854-9.49zM303.736 90.685c-3.219-1.706-7.254-1.188-9.934 1.279-5.663 5.213-1.816 14.985 5.86 14.985 4.152 0 7.812-3.077 8.515-7.168.623-3.624-1.186-7.371-4.441-9.096zM290.454 118.406l-25.963 1.334c-3.034.156-5.07 3.245-3.947 6.069 2.805 7.051 9.863 11.865 17.863 11.454 8.022-.413 14.564-5.955 16.611-13.287.81-2.9-1.556-5.724-4.564-5.57z"/></svg>
